<?xml version="1.0" encoding="UTF-8"?><svg xmlns="http://www.w3.org/2000/svg" xmlns:xlink="http://www.w3.org/1999/xlink" fill-opacity="1" color-rendering="auto" color-interpolation="auto" text-rendering="auto" stroke="black" stroke-linecap="square" width="735" stroke-miterlimit="10" shape-rendering="auto" stroke-opacity="1" fill="black" stroke-dasharray="none" font-weight="normal" stroke-width="1" height="390" font-family="'Dialog'" font-style="normal" stroke-linejoin="miter" font-size="12px" stroke-dashoffset="0" image-rendering="auto">
  <!--Generated by ySVG 2.5-->
  <defs id="genericDefs"/>
  <g>
    <defs id="defs1">
      <clipPath clipPathUnits="userSpaceOnUse" id="clipPath1">
        <path d="M0 0 L735 0 L735 390 L0 390 L0 0 Z"/>
      </clipPath>
      <clipPath clipPathUnits="userSpaceOnUse" id="clipPath2">
        <path d="M-15 -15 L720 -15 L720 375 L-15 375 L-15 -15 Z"/>
      </clipPath>
    </defs>
    <g fill="white" text-rendering="geometricPrecision" shape-rendering="geometricPrecision" transform="translate(15,15)" stroke="white">
      <rect x="-15" width="735" height="390" y="-15" clip-path="url(#clipPath2)" stroke="none"/>
    </g>
    <g fill="white" text-rendering="geometricPrecision" shape-rendering="geometricPrecision" transform="matrix(1,0,0,1,15,15)" stroke="white">
      <rect x="330" y="260" clip-path="url(#clipPath2)" width="300" rx="4" ry="4" height="100" stroke="none"/>
    </g>
    <g text-rendering="geometricPrecision" stroke-miterlimit="1.45" shape-rendering="geometricPrecision" transform="matrix(1,0,0,1,15,15)" stroke-linecap="butt">
      <rect x="330" y="260" clip-path="url(#clipPath2)" fill="none" width="300" rx="4" ry="4" height="100"/>
      <text x="447.195" font-size="30px" y="319.63" clip-path="url(#clipPath2)" font-family="'LM Mono Prop Light 10'" stroke="none" xml:space="preserve">FSM</text>
    </g>
    <g fill="white" text-rendering="geometricPrecision" shape-rendering="geometricPrecision" transform="matrix(1,0,0,1,15,15)" stroke="white">
      <rect x="0" y="260" clip-path="url(#clipPath2)" width="300" rx="4" ry="4" height="100" stroke="none"/>
    </g>
    <g text-rendering="geometricPrecision" stroke-miterlimit="1.45" shape-rendering="geometricPrecision" transform="matrix(1,0,0,1,15,15)" stroke-linecap="butt">
      <rect x="0" y="260" clip-path="url(#clipPath2)" fill="none" width="300" rx="4" ry="4" height="100"/>
      <text x="75.9001" font-size="30px" y="319.63" clip-path="url(#clipPath2)" font-family="'LM Mono Prop Light 10'" stroke="none" xml:space="preserve">Expression</text>
    </g>
    <g fill="white" text-rendering="geometricPrecision" shape-rendering="geometricPrecision" transform="matrix(1,0,0,1,15,15)" stroke="white">
      <rect x="405" y="130" clip-path="url(#clipPath2)" width="300" rx="4" ry="4" height="100" stroke="none"/>
    </g>
    <g text-rendering="geometricPrecision" stroke-miterlimit="1.45" shape-rendering="geometricPrecision" transform="matrix(1,0,0,1,15,15)" stroke-linecap="butt">
      <rect x="405" y="130" clip-path="url(#clipPath2)" fill="none" width="300" rx="4" ry="4" height="100"/>
      <text x="510.825" font-size="30px" y="189.63" clip-path="url(#clipPath2)" font-family="'LM Mono Prop Light 10'" stroke="none" xml:space="preserve">TFSM</text>
    </g>
    <g fill="white" text-rendering="geometricPrecision" shape-rendering="geometricPrecision" transform="matrix(1,0,0,1,15,15)" stroke="white">
      <rect x="75" y="130" clip-path="url(#clipPath2)" width="300" rx="4" ry="4" height="100" stroke="none"/>
    </g>
    <g text-rendering="geometricPrecision" stroke-miterlimit="1.45" shape-rendering="geometricPrecision" transform="matrix(1,0,0,1,15,15)" stroke-linecap="butt">
      <rect x="75" y="130" clip-path="url(#clipPath2)" fill="none" width="300" rx="4" ry="4" height="100"/>
      <text x="179.94" font-size="30px" y="189.63" clip-path="url(#clipPath2)" font-family="'LM Mono Prop Light 10'" stroke="none" xml:space="preserve">GFSM</text>
    </g>
    <g fill="white" text-rendering="geometricPrecision" shape-rendering="geometricPrecision" transform="matrix(1,0,0,1,15,15)" stroke="white">
      <rect x="150" width="300" height="100" y="0" clip-path="url(#clipPath2)" stroke="none"/>
    </g>
    <g text-rendering="geometricPrecision" stroke-miterlimit="1.45" shape-rendering="geometricPrecision" transform="matrix(1,0,0,1,15,15)" stroke-linecap="butt">
      <rect fill="none" x="150" width="300" height="100" y="0" clip-path="url(#clipPath2)"/>
      <text x="243.5701" font-size="30px" y="59.63" clip-path="url(#clipPath2)" font-family="'LM Mono Prop Light 10'" stroke="none" xml:space="preserve">GTFSM</text>
      <path fill="none" stroke-dasharray="6,2" d="M555 230 L555 244.9707" clip-path="url(#clipPath2)"/>
      <path fill="white" stroke-dasharray="6,2" d="M555 259.9707 L561 243.9707 L549 243.9707 Z" clip-path="url(#clipPath2)" stroke="none"/>
      <path fill="none" d="M555 259.9707 L561 243.9707 L549 243.9707 Z" clip-path="url(#clipPath2)"/>
      <path fill="none" stroke-dasharray="6,2" d="M300 230 L300 240 L405 240 L405 244.9609" clip-path="url(#clipPath2)"/>
      <path fill="white" stroke-dasharray="6,2" d="M405 259.9609 L411 243.9609 L399 243.9609 Z" clip-path="url(#clipPath2)" stroke="none"/>
      <path fill="none" d="M405 259.9609 L411 243.9609 L399 243.9609 Z" clip-path="url(#clipPath2)"/>
      <path fill="none" stroke-dasharray="6,2" d="M150 230 L150 244.9707" clip-path="url(#clipPath2)"/>
      <path fill="white" stroke-dasharray="6,2" d="M150 259.9707 L156 243.9707 L144 243.9707 Z" clip-path="url(#clipPath2)" stroke="none"/>
      <path fill="none" d="M150 259.9707 L156 243.9707 L144 243.9707 Z" clip-path="url(#clipPath2)"/>
      <path fill="none" stroke-dasharray="6,2" d="M375 100 L375 110 L555 110 L555 114.9609" clip-path="url(#clipPath2)"/>
      <path fill="white" stroke-dasharray="6,2" d="M555 129.9609 L561 113.9609 L549 113.9609 Z" clip-path="url(#clipPath2)" stroke="none"/>
      <path fill="none" d="M555 129.9609 L561 113.9609 L549 113.9609 Z" clip-path="url(#clipPath2)"/>
      <path fill="none" stroke-dasharray="6,2" d="M225 100 L225 114.9707" clip-path="url(#clipPath2)"/>
      <path fill="white" stroke-dasharray="6,2" d="M225 129.9707 L231 113.9707 L219 113.9707 Z" clip-path="url(#clipPath2)" stroke="none"/>
      <path fill="none" d="M225 129.9707 L231 113.9707 L219 113.9707 Z" clip-path="url(#clipPath2)"/>
    </g>
  </g>
</svg>
